<svg width="22" height="17" viewBox="0 0 22 17" fill="none" xmlns="http://www.w3.org/2000/svg">
<g clip-path="url(#clip0_0_150)">
<path d="M11.0118 15.4597C8.0136 15.4597 5.01618 15.4597 2.01797 15.4597C1.71484 15.4597 1.57469 15.5984 1.57469 15.8977C1.57469 15.9752 1.57863 16.0527 1.57391 16.1295C1.56761 16.2225 1.55816 16.3155 1.54084 16.4062C1.47628 16.7372 1.15898 17.0023 0.779476 16.9984C0.398401 16.9946 0.0826757 16.7116 0.0251995 16.3481C0.0118146 16.2628 0.00472849 16.1752 0.00472849 16.0891C0.00394114 14.3279 -0.00786904 12.5659 0.00866521 10.8046C0.0181134 9.77829 0.397614 8.88527 1.12512 8.14186C1.56682 7.69069 2.09198 7.36976 2.69273 7.16511C3.16513 7.00465 3.65329 6.95581 4.15089 6.95581C8.76237 6.95736 13.3738 6.95348 17.9853 6.95891C19.3364 6.96046 20.4308 7.4969 21.2418 8.56356C21.6402 9.08837 21.878 9.68449 21.9591 10.3357C21.9866 10.555 21.9984 10.7783 21.9992 11C22.0024 12.7101 22.0016 14.4202 22.0008 16.1302C22.0008 16.3977 21.9339 16.6411 21.7103 16.8178C21.4741 17.0046 21.2103 17.0535 20.9292 16.9395C20.6599 16.8295 20.4899 16.6271 20.4513 16.338C20.4316 16.1922 20.434 16.0426 20.43 15.8953C20.4237 15.6574 20.3237 15.5139 20.1238 15.4698C20.0797 15.4597 20.0332 15.4605 19.9875 15.4605C16.9964 15.4605 14.0053 15.4605 11.0134 15.4605L11.0118 15.4597Z" fill="white"/>
<path d="M10.9024 0C12.8471 0 14.7911 0 16.735 0C17.3862 0 17.9948 0.143411 18.5199 0.539535C19.1955 1.04884 19.5899 1.71938 19.623 2.56124C19.6513 3.27519 19.6388 3.9907 19.6419 4.70543C19.6443 5.16589 19.6419 5.62636 19.6419 6.08682C19.6419 6.12791 19.6395 6.17132 19.6285 6.21085C19.5947 6.33566 19.5262 6.38527 19.397 6.36124C19.2561 6.33488 19.1199 6.27829 18.979 6.26279C18.6475 6.22713 18.3152 6.20233 17.9822 6.18527C17.7601 6.17364 17.6916 6.13411 17.6602 5.91938C17.5594 5.23876 16.9193 4.62636 16.1004 4.63566C15.1871 4.64574 14.2738 4.63798 13.3612 4.63798C12.6818 4.63798 12.1015 5.03643 11.8708 5.66434C11.8377 5.75426 11.8251 5.85194 11.8078 5.94651C11.7755 6.11628 11.7118 6.17984 11.5401 6.18217C11.1803 6.18605 10.8197 6.18605 10.4599 6.18217C10.2945 6.18062 10.2292 6.11628 10.1993 5.92791C10.1575 5.66357 10.0536 5.42791 9.88355 5.22093C9.57569 4.84574 9.1773 4.64186 8.68599 4.63953C7.74354 4.63488 6.80109 4.63721 5.85785 4.63876C5.06578 4.63953 4.44614 5.24884 4.34536 5.91783C4.31308 6.13411 4.24773 6.17209 4.0257 6.18605C3.65801 6.21008 3.29032 6.24419 2.92342 6.28295C2.81082 6.29457 2.70296 6.34264 2.59116 6.36124C2.47069 6.38062 2.41479 6.34031 2.38093 6.22403C2.36755 6.17829 2.36125 6.12946 2.36125 6.0814C2.36046 4.97674 2.3455 3.87209 2.3644 2.76744C2.38408 1.61163 2.92656 0.762016 3.98791 0.248062C4.40835 0.0457364 4.86422 0 5.3256 0C7.18453 0 9.04345 0 10.9024 0Z" fill="white"/>
</g>
<defs>
<clipPath id="clip0_0_150">
<rect width="22" height="17" fill="white"/>
</clipPath>
</defs>
</svg>
