<svg width="22" height="21" viewBox="0 0 22 21" fill="none" xmlns="http://www.w3.org/2000/svg">
<g clip-path="url(#clip0_0_156)">
<path d="M1.26958 13.7615H11.1102V15.5696H17.2616V13.7654H19.7055C19.8638 15.9157 19.8763 17.8303 17.6708 19.2896C17.6439 19.3074 17.6222 19.3317 17.5624 19.3849C17.8337 19.6101 18.101 19.8328 18.3657 20.0528C18.0084 20.3943 17.7214 20.6689 17.3923 20.9841C17.102 20.6846 16.7881 20.3372 16.4459 20.0206C16.3454 19.9274 16.1674 19.8893 16.0216 19.8801C15.7832 19.8656 15.5415 19.9044 15.3011 19.905C12.1059 19.907 8.9106 19.9063 5.71469 19.9063C5.56166 19.9063 5.39812 19.9359 5.25691 19.8932C4.83066 19.7651 4.56006 19.9628 4.30654 20.2682C4.09046 20.5283 3.84417 20.7628 3.61889 21.0005C3.3148 20.6807 3.03961 20.3917 2.73486 20.0705C2.93912 19.8899 3.19855 19.66 3.49016 19.4013C3.28919 19.2574 3.13878 19.1576 2.99626 19.0473C1.92833 18.2243 1.35102 17.1327 1.27549 15.7922C1.23805 15.1282 1.26892 14.4603 1.26892 13.7615H1.26958Z" fill="white"/>
<path d="M1.27548 8.78721C1.27023 8.66834 1.26103 8.56128 1.26103 8.45423C1.26038 6.71375 1.25841 4.97393 1.26103 3.23345C1.26366 1.3209 2.59102 -0.0136865 4.50095 0.000105915C5.14197 0.0047034 5.80269 -0.00843228 6.41875 0.136717C7.51164 0.394833 8.19995 1.15276 8.53228 2.22069C8.59665 2.42824 8.68006 2.52872 8.90796 2.59046C10.1939 2.93921 11.0964 4.14113 11.1128 5.48228C11.1154 5.69836 11.1128 5.91444 11.1128 6.14891H5.02572C4.73542 4.61401 5.56953 3.02985 7.31329 2.53529C7.15567 1.85027 6.48115 1.2723 5.77314 1.24734C5.23786 1.22829 4.70061 1.22632 4.16533 1.24734C3.24255 1.28346 2.50038 2.13071 2.49644 3.14676C2.48987 4.89774 2.49447 6.64938 2.49447 8.40037C2.49447 8.5199 2.49447 8.63944 2.49447 8.78656H1.27417L1.27548 8.78721Z" fill="white"/>
<path d="M11.0931 12.5328C10.9644 12.5328 10.8678 12.5328 10.7713 12.5328C7.64366 12.5328 4.5154 12.5335 1.38779 12.5321C0.714591 12.5321 0.230541 12.2136 0.0604342 11.6698C-0.195711 10.8514 0.384229 10.0633 1.26826 10.0515C2.20877 10.039 3.14929 10.0482 4.0898 10.0482C6.29922 10.0482 8.50799 10.0482 10.7174 10.0482C10.8356 10.0482 10.9538 10.0482 11.0931 10.0482V12.5321V12.5328Z" fill="white"/>
<path d="M16.0236 14.371H12.3633C12.3574 14.2554 12.3475 14.1503 12.3475 14.0452C12.3462 12.777 12.3462 11.5081 12.3475 10.2398C12.3482 9.3223 12.8493 8.81789 13.7629 8.81395C14.1018 8.81263 14.4407 8.80541 14.7796 8.81592C15.5408 8.84022 16.038 9.35185 16.04 10.115C16.0439 11.4385 16.0413 12.7612 16.04 14.0846C16.04 14.1707 16.0308 14.2561 16.0236 14.371Z" fill="white"/>
<path d="M17.2833 12.521V10.0482C17.8783 10.0482 18.4648 10.0462 19.0507 10.0489C19.3561 10.0502 19.668 10.0252 19.9669 10.0745C20.6191 10.1822 21.0434 10.7162 21.0164 11.3395C20.9902 11.9509 20.5389 12.4757 19.8986 12.5092C19.0395 12.5545 18.1765 12.5204 17.2839 12.5204L17.2833 12.521Z" fill="white"/>
</g>
<defs>
<clipPath id="clip0_0_156">
<rect width="21.0171" height="21" fill="white"/>
</clipPath>
</defs>
</svg>
