<svg width="21" height="14" viewBox="0 0 21 14" fill="none" xmlns="http://www.w3.org/2000/svg">
<path fill-rule="evenodd" clip-rule="evenodd" d="M0 0.875C0 0.391751 0.391751 0 0.875 0H20.125C20.6082 0 21 0.391751 21 0.875C21 1.35825 20.6082 1.75 20.125 1.75H0.875C0.391751 1.75 0 1.35825 0 0.875ZM0 7C0 6.51675 0.391751 6.125 0.875 6.125H20.125C20.6082 6.125 21 6.51675 21 7C21 7.48325 20.6082 7.875 20.125 7.875H0.875C0.391751 7.875 0 7.48325 0 7ZM9.625 13.125C9.625 12.6418 10.0168 12.25 10.5 12.25H20.125C20.6082 12.25 21 12.6418 21 13.125C21 13.6082 20.6082 14 20.125 14H10.5C10.0168 14 9.625 13.6082 9.625 13.125Z" fill="white"/>
</svg>
