<svg width="25" height="25" viewBox="0 0 25 25" fill="none" xmlns="http://www.w3.org/2000/svg">
<path d="M24.2843 0.722873C23.6593 0.0841233 22.7343 -0.152127 21.8718 0.0978732L1.75928 5.90912C0.849275 6.16162 0.204275 6.88287 0.0305252 7.79787C-0.146975 8.73037 0.473025 9.91537 1.28303 10.4104L7.57178 14.2504C8.21677 14.6454 9.04928 14.5466 9.58302 14.0116L16.7843 6.81037C17.1468 6.43412 17.7468 6.43412 18.1093 6.81037C18.4718 7.17162 18.4718 7.76037 18.1093 8.13537L10.8955 15.3366C10.3605 15.8716 10.2605 16.7016 10.6543 17.3479L14.4968 23.6604C14.9468 24.4091 15.7218 24.8354 16.5718 24.8354C16.6718 24.8354 16.7843 24.8354 16.8843 24.8216C17.8593 24.6979 18.6343 24.0341 18.9218 23.0966L24.8843 3.13537C25.1468 2.28537 24.9093 1.36037 24.2843 0.722873Z" fill="white"/>
<path opacity="0.4" d="M9.3143 21.428C9.6793 21.7942 9.6793 22.388 9.3143 22.7542L7.6068 24.4605C7.4243 24.6442 7.1843 24.7355 6.9443 24.7355C6.7043 24.7355 6.4643 24.6442 6.2818 24.4605C5.91555 24.0942 5.91555 23.5017 6.2818 23.1355L7.98805 21.428C8.3543 21.063 8.94805 21.063 9.3143 21.428ZM8.33468 16.693C8.69968 17.0592 8.69968 17.653 8.33468 18.0192L6.62718 19.7255C6.44468 19.9092 6.20468 20.0005 5.96468 20.0005C5.72468 20.0005 5.48468 19.9092 5.30218 19.7255C4.93593 19.3592 4.93593 18.7667 5.30218 18.4005L7.00843 16.693C7.37468 16.328 7.96843 16.328 8.33468 16.693ZM3.63318 15.2025C3.99818 15.5687 3.99818 16.1625 3.63318 16.5287L1.92568 18.235C1.74318 18.4187 1.50318 18.51 1.26318 18.51C1.02318 18.51 0.783176 18.4187 0.600676 18.235C0.234426 17.8687 0.234426 17.2762 0.600676 16.91L2.30693 15.2025C2.67318 14.8375 3.26693 14.8375 3.63318 15.2025Z" fill="white"/>
</svg>
