<svg width="22" height="21" viewBox="0 0 22 21" fill="none" xmlns="http://www.w3.org/2000/svg">
<path d="M9.81213 0.459616C10.2057 -0.153147 11.1013 -0.153147 11.4949 0.459616L14.5339 5.19107C14.6694 5.4019 14.879 5.55421 15.1214 5.61786L20.5603 7.04604C21.2647 7.23101 21.5415 8.08279 21.0804 8.64646L17.5196 12.9989C17.3609 13.1928 17.2808 13.4392 17.2952 13.6894L17.6177 19.3035C17.6594 20.0306 16.9349 20.557 16.2563 20.2926L11.0166 18.2511C10.7831 18.1601 10.524 18.1601 10.2905 18.2511L5.05077 20.2926C4.37218 20.557 3.64761 20.0306 3.68937 19.3035L4.01182 13.6894C4.02619 13.4392 3.94612 13.1928 3.78745 12.9989L0.226681 8.64646C-0.234468 8.08279 0.0422938 7.23101 0.746689 7.04604L6.18568 5.61786C6.42804 5.55421 6.63768 5.4019 6.7731 5.19107L9.81213 0.459616Z" fill="#FFE600"/>
</svg>
