<svg width="18" height="18" viewBox="0 0 18 18" fill="none" xmlns="http://www.w3.org/2000/svg">
<path d="M0.75 3C0.75 1.75736 1.75736 0.75 3 0.75H5.25C6.49264 0.75 7.5 1.75736 7.5 3V5.25C7.5 6.49264 6.49264 7.5 5.25 7.5H3C1.75736 7.5 0.75 6.49264 0.75 5.25V3Z" stroke="#999999" stroke-width="1.5" stroke-linecap="round" stroke-linejoin="round"/>
<path d="M0.75 12.75C0.75 11.5074 1.75736 10.5 3 10.5H5.25C6.49264 10.5 7.5 11.5074 7.5 12.75V15C7.5 16.2426 6.49264 17.25 5.25 17.25H3C1.75736 17.25 0.75 16.2426 0.75 15V12.75Z" stroke="#999999" stroke-width="1.5" stroke-linecap="round" stroke-linejoin="round"/>
<path d="M10.5 3C10.5 1.75736 11.5074 0.75 12.75 0.75H15C16.2426 0.75 17.25 1.75736 17.25 3V5.25C17.25 6.49264 16.2426 7.5 15 7.5H12.75C11.5074 7.5 10.5 6.49264 10.5 5.25V3Z" stroke="#999999" stroke-width="1.5" stroke-linecap="round" stroke-linejoin="round"/>
<path d="M10.5 12.75C10.5 11.5074 11.5074 10.5 12.75 10.5H15C16.2426 10.5 17.25 11.5074 17.25 12.75V15C17.25 16.2426 16.2426 17.25 15 17.25H12.75C11.5074 17.25 10.5 16.2426 10.5 15V12.75Z" stroke="#999999" stroke-width="1.5" stroke-linecap="round" stroke-linejoin="round"/>
</svg>
