<svg width="44" height="44" viewBox="0 0 44 44" fill="none" xmlns="http://www.w3.org/2000/svg">
<rect width="44" height="44" rx="22" fill="#703BF7"/>
<path d="M31.4274 12.5783C30.9274 12.0673 30.1874 11.8783 29.4974 12.0783L13.4074 16.7273C12.6794 16.9293 12.1634 17.5063 12.0244 18.2383C11.8824 18.9843 12.3784 19.9323 13.0264 20.3283L18.0574 23.4003C18.5734 23.7163 19.2394 23.6373 19.6664 23.2093L25.4274 17.4483C25.7174 17.1473 26.1974 17.1473 26.4874 17.4483C26.7774 17.7373 26.7774 18.2083 26.4874 18.5083L20.7164 24.2693C20.2884 24.6973 20.2084 25.3613 20.5234 25.8783L23.5974 30.9283C23.9574 31.5273 24.5774 31.8683 25.2574 31.8683C25.3374 31.8683 25.4274 31.8683 25.5074 31.8573C26.2874 31.7583 26.9074 31.2273 27.1374 30.4773L31.9074 14.5083C32.1174 13.8283 31.9274 13.0883 31.4274 12.5783Z" fill="white"/>
<path opacity="0.4" d="M19.4514 29.1423C19.7434 29.4353 19.7434 29.9103 19.4514 30.2033L18.0854 31.5683C17.9394 31.7153 17.7474 31.7883 17.5554 31.7883C17.3634 31.7883 17.1714 31.7153 17.0254 31.5683C16.7324 31.2753 16.7324 30.8013 17.0254 30.5083L18.3904 29.1423C18.6834 28.8503 19.1584 28.8503 19.4514 29.1423ZM18.6677 25.3543C18.9597 25.6473 18.9597 26.1223 18.6677 26.4153L17.3017 27.7803C17.1557 27.9273 16.9637 28.0003 16.7717 28.0003C16.5797 28.0003 16.3877 27.9273 16.2417 27.7803C15.9487 27.4873 15.9487 27.0133 16.2417 26.7203L17.6067 25.3543C17.8997 25.0623 18.3747 25.0623 18.6677 25.3543ZM14.9065 24.1619C15.1985 24.4549 15.1985 24.9299 14.9065 25.2229L13.5405 26.5879C13.3945 26.7349 13.2025 26.8079 13.0105 26.8079C12.8185 26.8079 12.6265 26.7349 12.4805 26.5879C12.1875 26.2949 12.1875 25.8209 12.4805 25.5279L13.8455 24.1619C14.1385 23.8699 14.6135 23.8699 14.9065 24.1619Z" fill="white"/>
</svg>
